<svg width="20" height="12" viewBox="0 0 21 12" fill="none" xmlns="http://www.w3.org/2000/svg" role="figure"><path fill-rule="evenodd" clip-rule="evenodd" d="M1.06805 0H18.0983C18.2052 0.0015174 18.3036 0.0303777 18.3726 0.0932752L20.8967 2.58127C20.9386 2.62506 21.0002 2.7389 21.0002 2.84651V5.39077H14.9506C14.9236 5.35638 14.8944 5.32323 14.8623 5.2916L11.2189 1.70029C10.8233 1.31029 10.1768 1.31046 9.78137 1.70029L6.13775 5.29166C6.10591 5.32323 6.07639 5.35638 6.04961 5.39077H1.06672e-05V1.05263C1.06672e-05 0.473665 0.480694 0 1.06805 0ZM21.0002 6.60938V10.9475C21.0002 11.5262 20.5193 12.0002 19.9323 12.0002H1.06804C0.480683 12.0002 0 11.5265 0 10.9475V6.60938H6.0496C6.07637 6.6438 6.1059 6.6771 6.13792 6.70872L9.78136 10.3C10.1766 10.6895 10.8234 10.6899 11.2188 10.3001L14.8623 6.70872C14.8943 6.6771 14.9236 6.6438 14.9506 6.60938H21.0002ZM7.38896 5.70424L10.1978 2.93547C10.364 2.77153 10.6356 2.77153 10.8019 2.93532L13.6107 5.70406C13.7769 5.86803 13.7769 6.13563 13.6106 6.2996L10.8018 9.06834C10.6358 9.23186 10.3641 9.23186 10.198 9.06816L7.38905 6.29942C7.22289 6.13545 7.22289 5.86785 7.38896 5.70424Z" fill="#3F37C9"></path></svg>