<svg width="25" height="25" viewBox="0 0 25 25" fill="none" xmlns="http://www.w3.org/2000/svg">
<path d="M15.6602 22.4994L15.1052 23.3314C15.2558 23.4319 15.4308 23.4896 15.6117 23.4984C15.7925 23.5072 15.9723 23.4667 16.132 23.3813C16.2916 23.2959 16.425 23.1688 16.5181 23.0135C16.6111 22.8581 16.6602 22.6805 16.6602 22.4994H15.6602ZM12.6602 20.4994L13.2152 19.6674C13.0509 19.5578 12.8577 19.4993 12.6602 19.4993C12.4626 19.4993 12.2695 19.5578 12.1052 19.6674L12.6602 20.4994ZM9.66019 22.4994H8.66019C8.66016 22.6805 8.70928 22.8581 8.80231 23.0135C8.89534 23.1688 9.02879 23.2959 9.18842 23.3813C9.34805 23.4667 9.52787 23.5072 9.7087 23.4984C9.88953 23.4896 10.0646 23.4319 10.2152 23.3314L9.66019 22.4994ZM16.2152 21.6674L13.2152 19.6674L12.1052 21.3314L15.1052 23.3314L16.2152 21.6674ZM12.1052 19.6674L9.10519 21.6674L10.2152 23.3314L13.2152 21.3314L12.1052 19.6674ZM13.4222 3.93744L13.4642 3.98744L14.9872 2.69144L14.9452 2.64144L13.4222 3.93744ZM15.9892 5.03344L16.0542 5.02844L15.8942 3.03444L15.8292 3.03944L15.9892 5.03344ZM17.1312 6.10544L17.1262 6.17044L19.1202 6.33044L19.1252 6.26544L17.1312 6.10544ZM18.1722 8.69544L18.2222 8.73744L19.5182 7.21444L19.4682 7.17244L18.1722 8.69544ZM18.2222 10.2614L18.1722 10.3034L19.4682 11.8264L19.5182 11.7844L18.2222 10.2614ZM17.1262 12.8284L17.1312 12.8934L19.1252 12.7334L19.1202 12.6684L17.1262 12.8284ZM16.0542 13.9704L15.9892 13.9654L15.8292 15.9594L15.8942 15.9644L16.0542 13.9704ZM13.4642 15.0114L13.4222 15.0614L14.9452 16.3574L14.9872 16.3074L13.4642 15.0114ZM11.8982 15.0614L11.8562 15.0114L10.3332 16.3074L10.3752 16.3574L11.8982 15.0614ZM9.33119 13.9654L9.26619 13.9704L9.42619 15.9644L9.49119 15.9594L9.33119 13.9654ZM8.18919 12.8934L8.19419 12.8284L6.20019 12.6684L6.19519 12.7334L8.18919 12.8934ZM7.14819 10.3034L7.09819 10.2614L5.80219 11.7844L5.85219 11.8264L7.14819 10.3034ZM7.09819 8.73744L7.14819 8.69544L5.85219 7.17244L5.80219 7.21444L7.09819 8.73744ZM8.19419 6.17044L8.18919 6.10544L6.19519 6.26544L6.20019 6.33044L8.19419 6.17044ZM9.26619 5.02844L9.33019 5.03344L9.49119 3.03944L9.42619 3.03444L9.26619 5.02844ZM11.8562 3.98744L11.8982 3.93744L10.3752 2.64144L10.3332 2.69144L11.8562 3.98744ZM9.33019 5.03344C9.80382 5.07152 10.2807 4.99654 10.7197 4.81468C11.1587 4.63283 11.5482 4.3493 11.8562 3.98744L10.3332 2.69144C10.2304 2.81199 10.1005 2.9064 9.95412 2.9669C9.80773 3.02741 9.64907 3.05227 9.49119 3.03944L9.33019 5.03344ZM8.18919 6.10544C8.17757 5.96106 8.19745 5.81587 8.24747 5.67993C8.29748 5.54399 8.37643 5.42054 8.47886 5.31811C8.58128 5.21569 8.70474 5.13674 8.84068 5.08672C8.97662 5.03671 9.1218 5.01682 9.26619 5.02844L9.42619 3.03444C8.99312 2.99973 8.55767 3.0595 8.14997 3.20962C7.74227 3.35973 7.37204 3.59661 7.06488 3.90386C6.75771 4.21112 6.52095 4.58143 6.37097 4.98917C6.22098 5.39692 6.16034 5.83238 6.19519 6.26544L8.18919 6.10544ZM7.14819 8.69544C7.51004 8.38748 7.79357 7.99797 7.97543 7.55898C8.15728 7.11999 8.23226 6.64408 8.19419 6.17044L6.20019 6.33044C6.21301 6.48832 6.18815 6.64699 6.12765 6.79338C6.06714 6.93977 5.97273 7.06969 5.85219 7.17244L7.14819 8.69544ZM7.09819 10.2614C6.98772 10.1676 6.89899 10.0508 6.83814 9.91922C6.77728 9.78764 6.74576 9.64441 6.74576 9.49944C6.74576 9.35448 6.77728 9.21124 6.83814 9.07967C6.89899 8.94809 6.98772 8.83132 7.09819 8.73744L5.80219 7.21444C5.47114 7.49608 5.20524 7.84628 5.02289 8.24082C4.84054 8.63535 4.74609 9.0648 4.74609 9.49944C4.74609 9.93408 4.84054 10.3635 5.02289 10.7581C5.20524 11.1526 5.47114 11.5028 5.80219 11.7844L7.09819 10.2614ZM8.19419 12.8284C8.23226 12.3548 8.15728 11.8789 7.97543 11.4399C7.79357 11.0009 7.51004 10.6114 7.14819 10.3034L5.85219 11.8264C5.97273 11.9292 6.06714 12.0591 6.12765 12.2055C6.18815 12.3519 6.21301 12.5106 6.20019 12.6684L8.19419 12.8284ZM9.26619 13.9704C9.1218 13.9821 8.97662 13.9622 8.84068 13.9122C8.70474 13.8621 8.58128 13.7832 8.47886 13.6808C8.37643 13.5783 8.29748 13.4549 8.24747 13.319C8.19745 13.183 8.17757 13.0378 8.18919 12.8934L6.19519 12.7334C6.16048 13.1665 6.22025 13.602 6.37036 14.0097C6.52047 14.4174 6.75735 14.7876 7.06461 15.0948C7.37186 15.4019 7.74217 15.6387 8.14992 15.7887C8.55767 15.9387 8.99313 15.9983 9.42619 15.9634L9.26619 13.9704ZM13.4222 15.0604C13.3283 15.1709 13.2115 15.2596 13.08 15.3205C12.9484 15.3813 12.8052 15.4129 12.6602 15.4129C12.5152 15.4129 12.372 15.3813 12.2404 15.3205C12.1088 15.2596 11.9921 15.1709 11.8982 15.0604L10.3752 16.3574C10.6568 16.6885 11.007 16.9544 11.4016 17.1367C11.7961 17.3191 12.2255 17.4135 12.6602 17.4135C13.0948 17.4135 13.5243 17.3191 13.9188 17.1367C14.3134 16.9544 14.6636 16.6885 14.9452 16.3574L13.4222 15.0614V15.0604ZM17.1312 12.8934C17.1428 13.0379 17.1239 13.1832 17.0738 13.3192C17.0238 13.4552 16.9447 13.5787 16.8422 13.6812C16.7397 13.7836 16.6161 13.8626 16.48 13.9125C16.3439 13.9624 16.1987 13.9822 16.0542 13.9704L15.8942 15.9644C16.3273 15.9992 16.7627 15.9394 17.1704 15.7893C17.5781 15.6392 17.9483 15.4023 18.2555 15.095C18.5627 14.7878 18.7994 14.4175 18.9494 14.0097C19.0994 13.602 19.16 13.1665 19.1252 12.7334L17.1312 12.8934ZM18.1722 10.3034C17.8103 10.6114 17.5268 11.0009 17.3449 11.4399C17.1631 11.8789 17.0881 12.3548 17.1262 12.8284L19.1202 12.6684C19.1074 12.5106 19.1322 12.3519 19.1927 12.2055C19.2532 12.0591 19.3476 11.9292 19.4682 11.8264L18.1722 10.3034ZM18.2222 8.73744C18.3327 8.83132 18.4214 8.94809 18.4822 9.07967C18.5431 9.21124 18.5746 9.35448 18.5746 9.49944C18.5746 9.64441 18.5431 9.78764 18.4822 9.91922C18.4214 10.0508 18.3327 10.1676 18.2222 10.2614L19.5182 11.7844C19.8492 11.5028 20.1151 11.1526 20.2975 10.7581C20.4798 10.3635 20.5743 9.93408 20.5743 9.49944C20.5743 9.0648 20.4798 8.63535 20.2975 8.24082C20.1151 7.84628 19.8492 7.49608 19.5182 7.21444L18.2222 8.73744ZM17.1262 6.17044C17.0881 6.64408 17.1631 7.11999 17.3449 7.55898C17.5268 7.99797 17.8103 8.38748 18.1722 8.69544L19.4682 7.17244C19.3476 7.06969 19.2532 6.93977 19.1927 6.79338C19.1322 6.64699 19.1074 6.48832 19.1202 6.33044L17.1262 6.17044ZM16.0542 5.02844C16.1986 5.01682 16.3438 5.03671 16.4797 5.08672C16.6156 5.13674 16.7391 5.21569 16.8415 5.31811C16.9439 5.42054 17.0229 5.54399 17.0729 5.67993C17.1229 5.81587 17.1428 5.96106 17.1312 6.10544L19.1252 6.26544C19.1599 5.83237 19.1001 5.39693 18.95 4.98923C18.7999 4.58153 18.563 4.21129 18.2558 3.90413C17.9485 3.59697 17.5782 3.36021 17.1705 3.21022C16.7627 3.06024 16.3272 2.9996 15.8942 3.03444L16.0542 5.02844ZM13.4642 3.98744C13.7722 4.3493 14.1617 4.63283 14.6007 4.81468C15.0396 4.99654 15.5155 5.07152 15.9892 5.03344L15.8292 3.03944C15.6713 3.05227 15.5126 3.02741 15.3663 2.9669C15.2199 2.9064 15.0899 2.81199 14.9872 2.69144L13.4642 3.98744ZM14.9452 2.64144C14.6636 2.31056 14.3124 2.04481 13.918 1.86257C13.5235 1.68032 13.0942 1.58594 12.6597 1.58594C12.2252 1.58594 11.7959 1.68032 11.4014 1.86257C11.007 2.04481 10.6568 2.31056 10.3752 2.64144L11.8982 3.93744C11.9921 3.82698 12.1088 3.73825 12.2404 3.67739C12.372 3.61654 12.5152 3.58502 12.6602 3.58502C12.8052 3.58502 12.9484 3.61654 13.08 3.67739C13.2115 3.73825 13.3283 3.82698 13.4222 3.93744L14.9452 2.64144ZM11.8562 15.0114C11.5891 14.6975 11.2601 14.442 10.8899 14.2608C10.5196 14.0796 10.116 13.9767 9.70419 13.9584L9.61619 15.9564C9.7534 15.9626 9.88787 15.9969 10.0112 16.0573C10.1346 16.1177 10.2442 16.2028 10.3332 16.3074L11.8562 15.0114ZM9.70419 13.9594C9.57983 13.9541 9.45526 13.9564 9.33119 13.9664L9.49119 15.9604C9.53275 15.9568 9.5745 15.9558 9.61619 15.9574L9.70419 13.9594ZM10.6602 22.4994V14.9574H8.66019V22.4994H10.6602ZM15.9892 13.9654C15.8648 13.9554 15.7409 13.953 15.6162 13.9584L15.7042 15.9564C15.7459 15.9548 15.7876 15.9558 15.8292 15.9594L15.9892 13.9654ZM15.6162 13.9584C15.2044 13.9767 14.8008 14.0796 14.4305 14.2608C14.0603 14.442 13.7313 14.6975 13.4642 15.0114L14.9872 16.3074C15.0763 16.203 15.1859 16.1181 15.3093 16.0578C15.4326 15.9976 15.5671 15.9634 15.7042 15.9574L15.6162 13.9584ZM14.6602 14.9584V22.4994H16.6602V14.9574L14.6602 14.9584Z" fill="currenColor"/>
<path d="M14.6602 8.5L11.6602 11.5L10.6602 10.5"  stroke="currenColor" stroke-width="1.33333" stroke-linecap="round" stroke-linejoin="round"/>
</svg>
