<svg width="18" height="18" viewBox="0 0 18 18" fill="none" xmlns="http://www.w3.org/2000/svg">
<path d="M9.02676 5.07143C10.0258 5.07143 11.0248 5.44643 11.8097 6.21429C12.5768 7 12.9514 8 12.9514 9C12.9514 10 12.5768 11 11.8097 11.7857C11.0248 12.5536 10.0258 12.9464 9.02676 12.9464C8.02775 12.9464 7.02874 12.5536 6.24381 11.7857C5.47671 11 5.08424 10 5.08424 9C5.08424 8 5.47671 7 6.24381 6.21429C7.02874 5.44643 8.02775 5.07143 9.02676 5.07143ZM9.02676 12.4464L8.99108 12.4107C9.95441 12.4107 10.7572 12.0714 11.4351 11.4286C12.1308 10.7143 12.4519 9.89286 12.4519 8.96429C12.4519 8.03572 12.1308 7.23214 11.4351 6.53571C10.7393 5.83929 9.93657 5.51786 9.00892 5.51786C8.08127 5.51786 7.26065 5.83929 6.54708 6.53571C5.90486 7.21429 5.56591 8.01786 5.56591 8.98214C5.56591 9.96429 5.90486 10.7857 6.54708 11.4643C7.22498 12.1071 8.04559 12.4464 9.02676 12.4464ZM8.99108 6.73214V6.76786C9.56194 6.76786 10.1506 6.98214 10.5788 7.41071C11.0069 7.85714 11.221 8.42857 11.221 9C11.221 9.57143 11.0069 10.1429 10.5788 10.5893C10.1506 11.0179 9.56194 11.2321 8.99108 11.2321C8.38454 11.2321 7.79584 11.0179 7.36769 10.5893C6.93954 10.1607 6.72547 9.57143 6.72547 8.96429C6.72547 8.39286 6.93954 7.80357 7.36769 7.375C7.81368 6.94643 8.38454 6.73214 8.99108 6.73214ZM7.79584 10.1964C8.47374 10.875 9.52626 10.875 10.2042 10.1964C10.8821 9.51786 10.8821 8.46429 10.2042 7.78571C9.52626 7.10714 8.47374 7.10714 7.79584 7.78571C7.11794 8.46429 7.11794 9.51786 7.79584 10.1964ZM14.2894 10.8214H14.3072C14.45 10.4464 14.7354 10.2321 15.1635 10.1429L16.8761 9.78572V8.25L15.1635 7.89286C14.7354 7.80357 14.45 7.58929 14.3072 7.21429C14.2359 7 14.1645 6.78571 14.0753 6.57143C13.8791 6.19643 13.9148 5.85714 14.1288 5.5L15.1278 4.01786L14.0396 2.92857L12.559 3.92857C12.3984 4.01786 12.2022 4.08929 11.9703 4.08929C11.8097 4.08929 11.6313 4.05357 11.4886 3.98214C11.2745 3.89286 11.0605 3.82143 10.8464 3.75C10.4718 3.60714 10.2577 3.32143 10.1685 2.89286L9.8117 1.17857H8.2775L7.92071 2.89286C7.83152 3.32143 7.61744 3.60714 7.24281 3.75C7.02874 3.82143 6.81467 3.89286 6.60059 3.98214C6.45788 4.05357 6.31516 4.08929 6.11893 4.08929C5.90486 4.08929 5.70862 4.01786 5.51239 3.92857L4.03171 2.92857L2.94351 4.01786L3.94252 5.5C4.17443 5.83929 4.19227 6.21429 3.99604 6.58929C3.87116 6.80357 3.81764 7.01786 3.74628 7.23214C3.60357 7.60714 3.31814 7.82143 2.88999 7.91071L1.1774 8.26786V9.80357L2.88999 10.1607C3.31814 10.25 3.60357 10.4643 3.74628 10.8393C3.81764 11.0536 3.87116 11.2679 3.99604 11.4821C4.19227 11.8571 4.17443 12.1964 3.94252 12.5536L2.94351 14.0357L4.03171 15.125L5.51239 14.125C5.70862 14 5.90486 13.9643 6.11893 13.9643C6.27948 13.9643 6.45788 13.9821 6.60059 14.0536C6.81467 14.1786 7.02874 14.2321 7.24281 14.3036C7.61744 14.4464 7.83152 14.7321 7.92071 15.1607L8.2775 16.875H9.8117L10.1685 15.1607C10.2577 14.7321 10.4718 14.4464 10.8464 14.3036C11.0605 14.2321 11.2745 14.1786 11.4886 14.0536C11.6492 13.9821 11.7919 13.9643 11.9524 13.9643C12.1843 13.9643 12.3806 14 12.5411 14.125L14.0218 15.125L15.11 14.0357L14.111 12.5536C13.8969 12.1964 13.8612 11.8214 14.0575 11.4643C14.1467 11.25 14.218 11.0357 14.2894 10.8214ZM15.3598 6.78571L17.0902 7.14286C17.6075 7.26786 18 7.67857 18 8.23214V9.76786C18 10.3214 17.6075 10.7321 17.0902 10.8571L15.3598 11.2143C15.2884 11.4821 15.217 11.7143 15.0922 11.9464L16.0377 13.3929C16.3409 13.875 16.2874 14.4286 15.8771 14.8393L14.8246 15.8929C14.5927 16.125 14.3429 16.25 14.0396 16.25C13.8077 16.25 13.5937 16.1786 13.3974 16.0357L11.9524 15.0893C11.7205 15.1786 11.4886 15.2857 11.221 15.3571L10.8642 17.0893C10.7393 17.6071 10.329 18 9.77602 18H8.24182C7.6888 18 7.27849 17.6429 7.15362 17.0893L6.79683 15.3571C6.52924 15.2857 6.29732 15.1786 6.06541 15.0893L4.62042 16.0357C4.45986 16.1786 4.24579 16.25 3.9782 16.25C3.69276 16.25 3.40733 16.125 3.17542 15.8929L2.12289 14.8393C1.71259 14.4286 1.65907 13.875 1.96234 13.3929L2.90783 11.9464C2.81863 11.7143 2.7116 11.4821 2.64024 11.2143L0.909812 10.8571C0.392468 10.7321 0 10.3214 0 9.76786V8.23214C0 7.67857 0.392468 7.26786 0.909812 7.14286L2.64024 6.78571C2.7116 6.51786 2.81863 6.28571 2.90783 6.05357L1.96234 4.60714C1.65907 4.125 1.71259 3.57143 2.12289 3.16071L3.17542 2.10714C3.40733 1.875 3.69276 1.75 3.9782 1.75C4.24579 1.75 4.45986 1.82143 4.62042 1.96429L6.06541 2.91071C6.29732 2.78571 6.52924 2.71429 6.79683 2.64286L7.15362 0.910714C7.27849 0.392857 7.6888 0 8.24182 0H9.77602C10.329 0 10.7393 0.392857 10.8642 0.910714L11.221 2.64286C11.4886 2.71429 11.7384 2.78571 11.9524 2.91071L13.3974 1.96429C13.5937 1.82143 13.8077 1.75 14.0396 1.75C14.3429 1.75 14.5927 1.875 14.8246 2.10714L15.8771 3.16071C16.2874 3.57143 16.3409 4.125 16.0377 4.60714L15.0922 6.05357C15.217 6.26786 15.2884 6.51786 15.3598 6.78571Z" fill="#1C1C1C"/>
</svg>
