<svg xmlns="http://www.w3.org/2000/svg" width="15" height="16" viewBox="0 0 15 16" fill="none">
  <g clip-path="url(#clip0_42_1948)">
    <path d="M1.23512 4.65278H1.57738V4.97222H0V1H15V4.97222H13.4226V4.65278C13.4226 4.28241 13.2788 3.96759 12.9911 3.70833C12.6935 3.43981 12.3562 3.30556 11.9792 3.30556H9.62798V12.1806C9.62798 12.3194 9.67262 12.4306 9.7619 12.5139C9.89087 12.6343 10.0298 12.6944 10.1786 12.6944H11.4286V15H3.58631V12.6944H4.80655C4.95536 12.6944 5.06944 12.6574 5.14881 12.5833C5.2877 12.463 5.35714 12.3287 5.35714 12.1806V3.30556H3.00595C2.60913 3.30556 2.27183 3.43981 1.99405 3.70833C1.71627 3.98611 1.57738 4.30093 1.57738 4.65278H1.23512V4.66667H0.892857C0.892857 4.11111 1.10119 3.63889 1.51786 3.25C1.95437 2.86111 2.45536 2.66667 3.02083 2.66667H6.04167V12.1806C6.04167 12.4954 5.92014 12.7662 5.67708 12.9931C5.43403 13.2199 5.14385 13.3333 4.80655 13.3333H4.25595V14.3611H10.7292V13.3333H10.1786C9.84127 13.3333 9.55357 13.2199 9.31548 12.9931C9.07738 12.7662 8.95833 12.4954 8.95833 12.1806V2.66667H11.9792C12.5744 2.66667 13.0754 2.86111 13.4821 3.25C13.8988 3.65741 14.1071 4.12963 14.1071 4.66667H13.7649V4.34722H14.3155V1.63889H0.684524V4.33333H1.23512V4.65278Z" fill="#0B95E5"/>
  </g>
  <defs>
    <clipPath id="clip0_42_1948">
      <rect width="15" height="15" fill="white" transform="translate(0 0.5)"/>
    </clipPath>
  </defs>
</svg>