<svg width="15" height="16" viewBox="0 0 15 16" fill="none" xmlns="http://www.w3.org/2000/svg">
  <path
    d="M13.75 1.90656H11.7188V0.969063C11.7188 0.844742 11.6695 0.725481 11.5817 0.637515C11.4938 0.549548 11.3746 0.500083 11.2503 0.5C11.126 0.499917 11.0067 0.549224 10.9188 0.637073C10.8308 0.724922 10.7813 0.844117 10.7812 0.968438V1.90656H7.96875V0.969063C7.96879 0.907505 7.95671 0.846543 7.93319 0.789656C7.90967 0.732769 7.87518 0.681071 7.83168 0.637515C7.78818 0.593958 7.73653 0.559396 7.67967 0.535801C7.62282 0.512206 7.56187 0.500041 7.50031 0.5C7.37599 0.499917 7.25673 0.549224 7.16876 0.637073C7.0808 0.724922 7.03133 0.844117 7.03125 0.968438V1.90656H4.21875V0.969063C4.21879 0.907505 4.20671 0.846543 4.18319 0.789656C4.15967 0.732769 4.12518 0.681071 4.08168 0.637515C4.03818 0.593958 3.98653 0.559396 3.92967 0.535801C3.87282 0.512206 3.81187 0.500041 3.75031 0.5C3.62599 0.499917 3.50673 0.549224 3.41876 0.637073C3.3308 0.724922 3.28133 0.844117 3.28125 0.968438V1.90656H1.25C0.918588 1.90656 0.60074 2.03817 0.366337 2.27246C0.131935 2.50674 0.000165706 2.82453 0 3.15594V14.2497C0 14.5812 0.131696 14.8992 0.366117 15.1336C0.600537 15.368 0.918479 15.4997 1.25 15.4997H13.75C14.0815 15.4997 14.3995 15.368 14.6339 15.1336C14.8683 14.8992 15 14.5812 15 14.2497V3.15594C14.9998 2.82453 14.8681 2.50674 14.6337 2.27246C14.3993 2.03817 14.0814 1.90656 13.75 1.90656ZM14.0625 14.2503C14.0625 14.3331 14.0297 14.4125 13.9712 14.4711C13.9127 14.5296 13.8334 14.5626 13.7506 14.5628H1.25C1.16712 14.5628 1.08763 14.5299 1.02903 14.4713C0.970424 14.4127 0.9375 14.3332 0.9375 14.2503V3.15656C0.937666 3.07379 0.970663 2.99447 1.02925 2.936C1.08784 2.87753 1.16723 2.84469 1.25 2.84469H3.28125V3.78219C3.28117 3.90651 3.33047 4.02577 3.41832 4.11374C3.50617 4.2017 3.62537 4.25117 3.74969 4.25125C3.87401 4.25133 3.99327 4.20203 4.08124 4.11418C4.1692 4.02633 4.21867 3.90713 4.21875 3.78281V2.84469H7.03125V3.78219C7.03117 3.90651 7.08047 4.02577 7.16832 4.11374C7.25617 4.2017 7.37537 4.25117 7.49969 4.25125C7.62401 4.25133 7.74327 4.20203 7.83124 4.11418C7.9192 4.02633 7.96867 3.90713 7.96875 3.78281V2.84469H10.7812V3.78219C10.7812 3.90651 10.8305 4.02577 10.9183 4.11374C11.0062 4.2017 11.1254 4.25117 11.2497 4.25125C11.374 4.25133 11.4933 4.20203 11.5812 4.11418C11.6692 4.02633 11.7187 3.90713 11.7188 3.78281V2.84469H13.75C13.8327 2.84485 13.9119 2.87776 13.9703 2.93622C14.0288 2.99467 14.0617 3.0739 14.0619 3.15656L14.0625 14.2503Z"
    fill="#357EEB" />
  <path
    d="M3.28125 6.12549H5.15625V7.53174H3.28125V6.12549ZM3.28125 8.46924H5.15625V9.87549H3.28125V8.46924ZM3.28125 10.813H5.15625V12.2192H3.28125V10.813ZM6.5625 10.813H8.4375V12.2192H6.5625V10.813ZM6.5625 8.46924H8.4375V9.87549H6.5625V8.46924ZM6.5625 6.12549H8.4375V7.53174H6.5625V6.12549ZM9.84375 10.813H11.7188V12.2192H9.84375V10.813ZM9.84375 8.46924H11.7188V9.87549H9.84375V8.46924ZM9.84375 6.12549H11.7188V7.53174H9.84375V6.12549Z"
    fill="#357EEB" />
</svg>