<svg xmlns="http://www.w3.org/2000/svg" width="15" height="16" viewBox="0 0 15 16" fill="none">
  <g clip-path="url(#clip0_42_1864)">
    <path d="M11.7262 3.0307H13.7351C14.4494 3.0307 15 3.44737 15 3.96272V12.1206C15 12.6469 14.4494 13.0526 13.7351 13.0526H1.26488C0.550595 13.0526 0 12.6469 0 12.1206V3.96272C0 3.44737 0.550595 3.0307 1.26488 3.0307H3.28869V2.33991C3.28869 2.12061 3.52679 2 3.76488 2C3.9881 2 4.22619 2.12061 4.22619 2.33991V3.0307H7.03869V2.33991C7.03869 2.12061 7.27679 2 7.51488 2C7.7381 2 7.97619 2.12061 7.97619 2.33991V3.0307H10.7887V2.33991C10.7887 2.12061 11.0268 2 11.2649 2C11.4881 2 11.7262 2.12061 11.7262 2.33991V3.0307ZM13.7351 12.3618C13.9583 12.3618 14.0625 12.2851 14.0625 12.1206V3.96272C14.0625 3.79825 13.9583 3.72149 13.7351 3.72149H11.7262V4.41228C11.7262 4.64254 11.4881 4.76316 11.2649 4.76316C11.0268 4.76316 10.7887 4.64254 10.7887 4.41228V3.72149H7.97619V4.41228C7.97619 4.64254 7.7381 4.76316 7.51488 4.76316C7.27679 4.76316 7.03869 4.64254 7.03869 4.41228V3.72149H4.22619V4.41228C4.22619 4.64254 3.9881 4.76316 3.76488 4.76316C3.52679 4.76316 3.28869 4.64254 3.28869 4.41228V3.72149H1.26488C1.04167 3.72149 0.9375 3.79825 0.9375 3.96272V12.1206C0.9375 12.2851 1.04167 12.3618 1.26488 12.3618H13.7351ZM9.85119 6.14474H11.7262V7.17544H9.85119V6.14474ZM6.5625 6.14474H8.4375V7.17544H6.5625V6.14474ZM3.28869 6.14474H5.16369V7.17544H3.28869V6.14474ZM9.85119 7.86623H11.7262V8.90789H9.85119V7.86623ZM6.5625 7.86623H8.4375V8.90789H6.5625V7.86623ZM3.28869 7.86623H5.16369V8.90789H3.28869V7.86623ZM9.85119 9.59868H11.7262V10.6294H9.85119V9.59868ZM6.5625 9.59868H8.4375V10.6294H6.5625V9.59868ZM3.28869 9.59868H5.16369V10.6294H3.28869V9.59868Z" fill="#0B95E5"/>
  </g>
  <defs>
    <clipPath id="clip0_42_1864">
      <rect width="15" height="15" fill="white" transform="translate(0 0.5)"/>
    </clipPath>
  </defs>
</svg>