<svg xmlns="http://www.w3.org/2000/svg" width="15" height="16" viewBox="0 0 15 16" fill="none">
<g clip-path="url(#clip0_42_1799)">
<path d="M14.6284 14.7291H15V15.1503H0V1H15V14.7291H14.6284H14.2692V1.84228H0.743187V14.294H14.6284V14.7291ZM6.57721 4.35508C6.75888 4.3738 6.8621 4.4861 6.88687 4.69199C6.91164 4.89788 6.85384 5.0289 6.71346 5.08505L6.57721 5.09909C5.37985 5.03358 4.37242 5.52023 3.55491 6.55904C3.2659 6.92403 3.11313 7.27966 3.09661 7.62593C3.08836 7.80374 3.11313 7.92307 3.17093 7.9839C3.22874 8.04473 3.27828 8.09152 3.31957 8.12428C3.36086 8.15703 3.4166 8.18277 3.48679 8.20149C3.55698 8.2202 3.61478 8.23424 3.6602 8.2436C3.70562 8.25296 3.76961 8.267 3.85219 8.28571C4.43022 8.38866 4.85756 8.55244 5.13419 8.77704C5.41082 9.00165 5.60487 9.21456 5.71635 9.41577C5.82783 9.61698 5.86705 9.8065 5.83402 9.98431C5.80099 10.1621 5.73493 10.3353 5.63584 10.5037C5.53675 10.6722 5.39224 10.8289 5.20231 10.974C5.01239 11.119 4.81833 11.2547 4.62015 11.3811C4.42197 11.5074 4.20727 11.6221 3.97605 11.725C3.55491 11.9216 3.18745 12.0713 2.87366 12.1742C2.74154 12.2117 2.63419 12.1789 2.55161 12.076C2.46903 11.973 2.44013 11.8514 2.46491 11.711C2.48968 11.5706 2.56813 11.4817 2.70025 11.4443C3.93889 11.0418 4.70685 10.6113 5.00413 10.1528C5.09496 10.0217 5.11148 9.88371 5.05367 9.73865C4.99587 9.59359 4.8782 9.46725 4.70066 9.35962C4.52312 9.252 4.32494 9.17245 4.10611 9.12097C3.88728 9.0695 3.69116 9.02505 3.51775 8.98761C3.07184 8.91274 2.74979 8.71621 2.55161 8.39802C2.33691 8.03303 2.3493 7.54638 2.58877 6.93807C2.76218 6.51693 3.045 6.08643 3.43724 5.64657C3.82948 5.20672 4.30223 4.87448 4.85549 4.64988C5.40875 4.42527 5.98266 4.327 6.57721 4.35508ZM7.63006 4.43931C7.67135 4.28957 7.75392 4.203 7.87779 4.1796C8.00165 4.15621 8.109 4.1913 8.19983 4.28489C8.29067 4.37848 8.31544 4.49546 8.27415 4.63584C7.79521 6.31104 7.55161 8.13598 7.54335 10.1107C7.54335 10.2323 7.50826 10.3259 7.43807 10.3914C7.36788 10.4569 7.28943 10.4897 7.20272 10.4897C7.11602 10.4897 7.03964 10.4569 6.97358 10.3914C6.90751 10.3259 6.87448 10.2323 6.87448 10.1107C6.88274 8.02367 7.1346 6.13322 7.63006 4.43931ZM10.6276 4.35508C10.7102 4.23342 10.8196 4.1796 10.9558 4.19364C11.0921 4.20768 11.185 4.26617 11.2345 4.36912C11.2841 4.47206 11.2799 4.58904 11.2221 4.72007C10.9083 5.21607 10.7308 6.0022 10.6895 7.07845C10.6813 7.20947 10.6751 7.42706 10.6709 7.73121C10.6668 8.03537 10.6647 8.2319 10.6647 8.32081C10.6647 8.40972 10.6627 8.56179 10.6585 8.77704C10.6544 8.99229 10.6503 9.16777 10.6462 9.30347C10.642 9.43917 10.642 9.60763 10.6462 9.80884C10.6503 10.01 10.6565 10.1902 10.6647 10.3493C10.6895 10.7143 10.7287 11.0044 10.7824 11.2197C10.8361 11.4349 10.8175 11.5893 10.7267 11.6829C10.6358 11.7765 10.5285 11.8092 10.4046 11.7812C10.2808 11.7531 10.2023 11.6689 10.1693 11.5285C10.0537 11.0699 9.98968 10.5014 9.97729 9.82287C9.9649 9.14437 9.9649 8.6741 9.97729 8.41206C9.98968 8.15001 10 7.89031 10.0083 7.63295C10.0165 7.37559 10.0248 7.1346 10.033 6.90999C10.0413 6.68538 10.0661 6.39527 10.1073 6.03964C10.1817 5.35645 10.3551 4.79494 10.6276 4.35508ZM7.07267 8.11726C6.9488 8.19213 6.83526 8.18979 6.73204 8.11024C6.62882 8.03069 6.57514 7.92541 6.57102 7.79438C6.56689 7.66336 6.6185 7.55574 6.72585 7.47151C7.65896 6.88192 8.68291 6.60116 9.79769 6.62923C10.2931 6.63859 10.8423 6.64795 11.4451 6.65731C11.5277 6.65731 11.5958 6.68538 11.6495 6.74154C11.7031 6.79769 11.7382 6.8632 11.7547 6.93807C11.7713 7.01294 11.7713 7.08781 11.7547 7.16268C11.7382 7.23755 11.7031 7.29838 11.6495 7.34517C11.5958 7.39196 11.5277 7.41536 11.4451 7.41536C10.8836 7.406 10.3757 7.39196 9.92155 7.37325C8.87283 7.33581 7.9232 7.58382 7.07267 8.11726Z" fill="#0B95E5"/>
</g>
<defs>
<clipPath id="clip0_42_1799">
<rect width="15" height="15" fill="white" transform="translate(0 0.5)"/>
</clipPath>
</defs>
</svg>