<svg xmlns="http://www.w3.org/2000/svg" width="15" height="16" viewBox="0 0 15 16" fill="none">
  <path d="M3.6637 11.6884C3.73697 11.6884 3.80211 11.7391 3.8591 11.8404C3.91609 11.9417 3.94865 12.0557 3.9568 12.1824C3.9568 12.2964 3.9283 12.404 3.87131 12.5053C3.81432 12.6066 3.74919 12.6573 3.67591 12.6573H2.03946C1.96619 12.6573 1.90309 12.6066 1.85017 12.5053C1.79725 12.404 1.77079 12.2932 1.77079 12.1729C1.77079 12.0526 1.79725 11.9417 1.85017 11.8404C1.90309 11.7391 1.96619 11.6884 2.03946 11.6884H2.52795C2.53609 11.7138 2.54017 11.7138 2.54017 11.6884V5.24848L2.51574 5.22948H2.02725C1.95397 5.22948 1.89088 5.19466 1.83796 5.125C1.78504 5.05534 1.75858 4.96353 1.75858 4.84954C1.75858 4.77356 1.77079 4.7039 1.79521 4.64058C1.81964 4.57725 1.8522 4.52976 1.89291 4.4981C1.93362 4.46644 1.9784 4.45061 2.02725 4.45061H3.6637C3.73697 4.45061 3.80211 4.4886 3.8591 4.56459C3.91609 4.64058 3.94458 4.73556 3.94458 4.84954C3.94458 4.96353 3.91609 5.05534 3.8591 5.125C3.80211 5.19466 3.73697 5.22948 3.6637 5.22948H3.17521L3.16299 5.24848V11.6884H3.6637ZM13.9221 3.15881H0.744952V13.6831H13.9221V3.15881ZM14.6792 2H14.667V14.8419H0V2H14.6792Z" fill="#0B95E5"/>
</svg>