<svg xmlns="http://www.w3.org/2000/svg" width="15" height="16" viewBox="0 0 15 16" fill="none">
  <g clip-path="url(#clip0_42_1812)">
    <path d="M6.89696 4.51288H7.59953C7.59953 5.46838 7.3185 6.28103 6.75644 6.95082C6.19438 7.62061 5.51717 7.9555 4.72482 7.9555C3.93247 7.9555 3.25527 7.62061 2.69321 6.95082C2.13115 6.28103 1.85012 5.46838 1.85012 4.51288C1.85012 4.0445 1.92623 3.59953 2.07845 3.17799C2.23068 2.75644 2.43365 2.3911 2.68735 2.08197C2.94106 1.77283 3.24551 1.52693 3.6007 1.34426C3.95589 1.16159 4.32865 1.07026 4.71897 1.07026C5.10929 1.07026 5.48205 1.16159 5.83724 1.34426C6.19243 1.52693 6.49883 1.77049 6.75644 2.07494C7.01405 2.37939 7.21897 2.74473 7.37119 3.17096C7.52342 3.59719 7.59953 4.0445 7.59953 4.51288H6.89696C6.89696 3.8103 6.68618 3.19672 6.26464 2.67213C5.82748 2.16628 5.31421 1.91335 4.72482 1.91335C4.13544 1.91335 3.62217 2.16628 3.18501 2.67213C2.76347 3.19672 2.55269 3.81265 2.55269 4.51991C2.55269 5.22717 2.76347 5.83841 3.18501 6.35363C3.62217 6.85948 4.13544 7.11241 4.72482 7.11241C5.31421 7.11241 5.82748 6.85948 6.26464 6.35363C6.68618 5.83841 6.89696 5.22482 6.89696 4.51288ZM7.88056 8.16628C8.23966 8.16628 8.5402 8.25761 8.7822 8.44028C9.0242 8.62295 9.18618 8.86651 9.26815 9.17096C9.35012 9.47541 9.3911 9.7541 9.3911 10.007V15.1499H0V10.007C0 9.4356 0.187354 8.98595 0.562061 8.65808C0.936768 8.33021 1.36612 8.16628 1.85012 8.16628H3.33724L4.84777 9.93677L6.2178 8.16628H7.88056ZM6.97892 11.5667H7.6815V14.3068H8.67682V10.0211C8.67682 9.637 8.59485 9.36534 8.43091 9.20609C8.32162 9.07494 8.13817 9.00937 7.88056 9.00937H6.53396L4.87119 11.1593L3.0445 9.00937H1.86183C1.61202 9.00937 1.39344 9.06557 1.20609 9.17799C0.87822 9.37471 0.714286 9.65105 0.714286 10.007V14.2927H2.27166V11.5667H2.98595V14.2927H6.97892V11.5667ZM8.67682 1.84309C8.57533 1.84309 8.49141 1.80094 8.42506 1.71663C8.3587 1.63232 8.32553 1.54333 8.32553 1.44965C8.32553 1.35597 8.34114 1.27635 8.37236 1.21077C8.43482 1.07026 8.5363 1 8.67682 1H14.6487C14.7814 1 14.8731 1.05152 14.9239 1.15457C14.9746 1.25761 15 1.35597 15 1.44965C15 1.54333 14.9668 1.63232 14.9005 1.71663C14.8341 1.80094 14.7502 1.84309 14.6487 1.84309H8.67682ZM8.67682 4.04918C8.57533 4.04918 8.49141 4.00937 8.42506 3.92974C8.3587 3.85012 8.32553 3.75176 8.32553 3.63466C8.32553 3.51756 8.3587 3.41686 8.42506 3.33255C8.49141 3.24824 8.57533 3.20609 8.67682 3.20609H14.6487C14.7424 3.20609 14.8244 3.24824 14.8946 3.33255C14.9649 3.41686 15 3.50585 15 3.59953C15 3.69321 14.9844 3.77283 14.9532 3.83841C14.8907 3.97892 14.7892 4.04918 14.6487 4.04918H8.67682ZM8.67682 6.26932H14.6487C14.7502 6.26932 14.8341 6.22951 14.9005 6.14988C14.9668 6.07026 15 5.9719 15 5.8548C15 5.7377 14.9649 5.637 14.8946 5.55269C14.8244 5.46838 14.7424 5.42623 14.6487 5.42623H8.67682C8.57533 5.42623 8.49141 5.46838 8.42506 5.55269C8.3587 5.637 8.32553 5.7377 8.32553 5.8548C8.32553 5.9719 8.3587 6.07026 8.42506 6.14988C8.49141 6.22951 8.57533 6.26932 8.67682 6.26932Z" fill="#0B95E5"/>
  </g>
  <defs>
    <clipPath id="clip0_42_1812">
      <rect width="15" height="15" fill="white" transform="translate(0 0.5)"/>
    </clipPath>
  </defs>
</svg>