<svg xmlns="http://www.w3.org/2000/svg" width="15" height="16" viewBox="0 0 15 16" fill="none">
  <g clip-path="url(#clip0_42_1931)">
    <path d="M2 2H3.875V3.875H2V2Z" fill="#0B95E5"/>
    <path d="M5.625 1V6.625H0V1H5.625ZM4.6875 1.9375H0.9375V5.6875H4.6875V1.9375ZM3.75 12.25H1.875V14.125H3.75V12.25Z" fill="#0B95E5"/>
    <path d="M5.625 9.5V15.125H0V9.5H5.625ZM0.9375 10.4375V14.1875H4.6875V10.4375H0.9375ZM11.25 2H13.125V3.875H11.25V2Z" fill="#0B95E5"/>
    <path d="M9.375 1V6.625H15V1H9.375ZM14.0625 1.9375V5.6875H10.3125V1.9375H14.0625ZM7.5 1.9375V1H8.4375V2.875H7.5V4.75H6.5625V1.9375H7.5ZM7.5 6.625V4.75H8.4375V6.625H7.5ZM5.625 8.5V7.5625H6.5625V6.625H7.5V8.5H8.4375V7.5625H13.125V8.5H9.375V9.4375H6.5625V8.5H5.625ZM5.625 8.5V9.4375H1.875V8.5H0.9375V9.4375H0V7.5625H2.8125V8.5H5.625ZM15 9.4375H14.0625V7.5625H15V9.4375ZM14.0625 9.4375H13.125V11.3125H15V10.375H14.0625V9.4375ZM10.3125 9.4375H12.1875V10.375H11.25V11.3125H10.3125V9.4375ZM12.1875 12.25V11.3125H11.25V12.25H10.3125V13.1875H8.4375V14.125H11.25V12.25H12.1875ZM12.1875 12.25H15V13.1875H13.125V14.125H12.1875V12.25ZM8.4375 11.3125V12.25H9.375V10.375H6.5625V11.3125H8.4375Z" fill="#0B95E5"/>
    <path d="M7 12H7.9375V14.8125H11.6875V15.75H7V12ZM15.4375 13.875V15.75H12.625V14.8125H14.5V13.875H15.4375Z" fill="#0B95E5"/>
  </g>
  <defs>
    <clipPath id="clip0_42_1931">
      <rect width="15" height="15" fill="white" transform="translate(0 0.5)"/>
    </clipPath>
  </defs>
</svg>