<svg xmlns="http://www.w3.org/2000/svg" width="15" height="16" viewBox="0 0 15 16" fill="none">
  <g clip-path="url(#clip0_42_1905)">
    <path d="M10.0595 2.25651C9.24603 1.94835 8.46726 1.79427 7.72321 1.79427C6.97917 1.79427 6.32192 1.86372 5.75149 2.0026C5.18105 2.14149 4.65526 2.33464 4.17411 2.58203C3.69296 2.82943 3.24901 3.13108 2.84226 3.48698C2.43552 3.84288 2.09325 4.23351 1.81548 4.65885C1.21032 5.54427 0.907738 6.51215 0.907738 7.5625C0.907738 8.84722 1.33433 9.98003 2.1875 10.9609C3.0506 11.9679 4.12698 12.658 5.41667 13.0312C6.09127 13.2309 6.83036 13.3307 7.63393 13.3307C8.4375 13.3307 9.24603 13.1766 10.0595 12.8685C10.873 12.5603 11.5724 12.1502 12.1577 11.638C12.7431 11.1259 13.2118 10.5139 13.564 9.80208C13.9162 9.09028 14.0923 8.34375 14.0923 7.5625C14.0923 6.78125 13.9162 6.03472 13.564 5.32292C13.2118 4.61111 12.7431 3.99913 12.1577 3.48698C11.5724 2.97483 10.873 2.56467 10.0595 2.25651ZM7.5 1C9.56349 1 11.3294 1.64236 12.7976 2.92708C14.2659 4.21181 15 5.75694 15 7.5625C15 9.36806 14.2659 10.9132 12.7976 12.1979C11.3294 13.4826 9.56349 14.125 7.5 14.125C5.43651 14.125 3.67063 13.4826 2.20238 12.1979C0.734127 10.9132 0 9.36806 0 7.5625C0 5.75694 0.734127 4.21181 2.20238 2.92708C3.67063 1.64236 5.43651 1 7.5 1ZM4.18155 7.5625C4.18155 6.76389 4.50645 6.0803 5.15625 5.51172C5.80605 4.94314 6.5873 4.65885 7.5 4.65885C8.4127 4.65885 9.19395 4.94314 9.84375 5.51172C10.4936 6.0803 10.8185 6.76389 10.8185 7.5625C10.8185 8.36111 10.4936 9.0447 9.84375 9.61328C9.19395 10.1819 8.4127 10.4661 7.5 10.4661C6.5873 10.4661 5.80605 10.1819 5.15625 9.61328C4.50645 9.0447 4.18155 8.36111 4.18155 7.5625Z" fill="#0B95E5"/>
  </g>
  <defs>
    <clipPath id="clip0_42_1905">
      <rect width="15" height="15" fill="white" transform="translate(0 0.5)"/>
    </clipPath>
  </defs>
</svg>