<svg xmlns="http://www.w3.org/2000/svg" width="15" height="16" viewBox="0 0 15 16" fill="none">
<path d="M14.6284 15.5536H15V16H0V1H15V15.5536H14.6284H14.2692V1.89286H0.743187V15.0923H14.6284V15.5536ZM2.67547 8.5C2.67547 7.18056 2.92733 6.52083 3.43105 6.52083C3.61272 6.52083 3.782 6.60516 3.93889 6.77381C4.45087 7.31944 4.70685 8.13294 4.70685 9.21429C4.70685 9.95833 4.58299 10.6528 4.33526 11.2976C3.88935 12.4782 3.42692 13.2123 2.94798 13.5C2.79108 13.5893 2.64244 13.6339 2.50206 13.6339C2.25434 13.6339 2.02931 13.5446 1.827 13.3661C1.62469 13.1875 1.48018 13.0164 1.39348 12.8527C1.30677 12.689 1.27374 12.56 1.29438 12.4658C1.31503 12.3715 1.35838 12.3145 1.42444 12.2946C1.49876 12.245 1.57514 12.2302 1.65359 12.25C1.73204 12.2698 1.79604 12.3244 1.84558 12.4137C2.04377 12.7907 2.25434 12.9792 2.47729 12.9792C2.63419 12.9792 2.82205 12.8477 3.04088 12.5848C3.2597 12.3219 3.49298 11.8581 3.74071 11.1935C3.98844 10.5288 4.1123 9.94345 4.1123 9.4375C4.1123 8.58432 3.95954 7.93452 3.65401 7.48809C3.57969 7.37897 3.50124 7.31448 3.41866 7.29464C3.30306 7.43353 3.24525 7.83036 3.24525 8.48512C3.24525 9.95337 3.44756 11.0992 3.85219 11.9226C4.05863 12.3492 4.28159 12.5625 4.52106 12.5625H4.60776C5.35095 12.5625 5.83815 12.0516 6.06936 11.0298C6.13543 10.7817 6.16846 10.5089 6.16846 10.2113V10.122C6.16846 9.92361 6.12717 9.75992 6.04459 9.63095H6.0322C5.96614 9.63095 5.90421 9.69048 5.84641 9.80952C5.74732 9.95833 5.69777 10.1121 5.69777 10.2708C5.69777 10.7371 5.77622 11.1662 5.93311 11.558C6.09001 11.9499 6.22213 12.188 6.32948 12.2723C6.43683 12.3566 6.51115 12.3988 6.55244 12.3988C6.59372 12.3988 6.62676 12.3889 6.65153 12.369C6.71759 12.2798 6.80842 12.0813 6.92403 11.7738C7.1057 11.2976 7.28737 10.995 7.46903 10.8661C7.54335 10.8065 7.63419 10.7768 7.74154 10.7768C7.99752 10.7768 8.22461 10.9504 8.42279 11.2976C8.47234 11.3869 8.54253 11.5159 8.63336 11.6845C8.86457 12.121 9.02147 12.3393 9.10405 12.3393H9.16598C9.21552 12.3393 9.24443 12.3343 9.25268 12.3244C9.26094 12.3145 9.2692 12.3095 9.27746 12.3095C9.327 12.2798 9.37655 12.1806 9.4261 12.0119C9.61602 11.3274 9.7853 10.9256 9.93394 10.8065C10.0165 10.7272 10.1032 10.6875 10.1941 10.6875C10.4253 10.6875 10.6916 10.8934 10.993 11.3051C11.2944 11.7168 11.4781 11.9623 11.5442 12.0417C11.6598 12.1806 11.7589 12.25 11.8415 12.25H11.8538C11.9364 12.2401 12.0107 12.2624 12.0768 12.317C12.1429 12.3715 12.18 12.441 12.1883 12.5253C12.1965 12.6096 12.1924 12.6815 12.1759 12.7411C12.1263 12.8998 12.0231 12.9742 11.8662 12.9643C11.7093 12.9544 11.5813 12.9172 11.4822 12.8527C11.3832 12.7882 11.282 12.6989 11.1788 12.5848C11.0756 12.4707 10.9207 12.2748 10.7143 11.997C10.4831 11.6796 10.3179 11.4811 10.2188 11.4018L10.2312 11.3125V11.4018H10.2188L10.2312 11.3125V11.2679L10.2808 11.4018H10.2312V11.2679L10.2808 11.4018L10.2436 11.3274L10.2931 11.3869C10.2849 11.3869 10.2766 11.3919 10.2684 11.4018L10.2312 11.3274L10.2808 11.3869C10.2808 11.3968 10.2642 11.4415 10.2312 11.5208C10.1982 11.6002 10.1363 11.7812 10.0454 12.064C9.95458 12.3467 9.88439 12.5377 9.83485 12.6369C9.69447 12.9246 9.47151 13.0685 9.16598 13.0685H9.0545C8.90586 13.0387 8.78613 12.9816 8.69529 12.8973C8.60446 12.813 8.52188 12.7212 8.44756 12.622C8.37325 12.5228 8.31751 12.4385 8.28035 12.369C8.24319 12.2996 8.21222 12.2351 8.18745 12.1756C7.98101 11.7986 7.83237 11.5655 7.74154 11.4762L7.75392 11.4315V11.4762H7.74154L7.76631 11.4464L7.7787 11.4911H7.76631V11.4464L7.7787 11.4911C7.77044 11.4911 7.7436 11.5184 7.69818 11.5729C7.65277 11.6275 7.58258 11.7862 7.48761 12.0491C7.39265 12.312 7.29975 12.5228 7.20892 12.6815C7.04377 12.9494 6.84558 13.0833 6.61437 13.0833C6.38315 13.0833 6.19323 13.0139 6.04459 12.875C5.59042 12.4583 5.29315 11.7143 5.15277 10.6429C5.13625 10.5139 5.12799 10.3651 5.12799 10.1964C5.12799 10.0278 5.1796 9.81944 5.28282 9.57143C5.38604 9.32341 5.50991 9.1498 5.65442 9.05059C5.79893 8.95139 5.92898 8.90179 6.04459 8.90179C6.50702 8.90179 6.75062 9.29365 6.77539 10.0774V10.1667C6.77539 10.7024 6.68456 11.2282 6.50289 11.744C6.32122 12.2599 6.06111 12.6369 5.72254 12.875C5.38398 13.1131 5.02477 13.2321 4.64492 13.2321H4.52106C4.16598 13.2024 3.8749 13.0213 3.64781 12.689C3.42073 12.3566 3.22874 11.9325 3.07184 11.4167C2.8076 10.5536 2.67547 9.58135 2.67547 8.5ZM13.2783 12.2351H13.5879C13.5879 12.4236 13.5343 12.5823 13.4269 12.7113C13.3196 12.8403 13.1895 12.9048 13.0367 12.9048C12.884 12.9048 12.7539 12.8403 12.6466 12.7113C12.5392 12.5823 12.4855 12.4261 12.4855 12.2426C12.4855 12.059 12.5392 11.9028 12.6466 11.7738C12.7539 11.6448 12.884 11.5804 13.0367 11.5804C13.1895 11.5804 13.3196 11.6448 13.4269 11.7738C13.5343 11.9028 13.5879 12.0565 13.5879 12.2351H13.2783C13.2783 12.1558 13.2535 12.0838 13.204 12.0193C13.1544 11.9549 13.0946 11.9226 13.0244 11.9226C12.9542 11.9226 12.8943 11.9549 12.8448 12.0193C12.7952 12.0838 12.7704 12.1582 12.7704 12.2426C12.7704 12.3269 12.7952 12.3988 12.8448 12.4583C12.8943 12.5179 12.9542 12.5476 13.0244 12.5476C13.0946 12.5476 13.1544 12.5179 13.204 12.4583C13.2535 12.3988 13.2783 12.3244 13.2783 12.2351ZM8.49711 5.31548L9.02973 4.6756L10.4913 6.43155L13.1049 3.29167L13.6375 3.93155L10.4913 7.71131L8.49711 5.31548Z" fill="#0B95E5"/>
</svg>